<?xml version="1.0" encoding="UTF-8" standalone="no"?>
<!DOCTYPE svg PUBLIC "-//W3C//DTD SVG 1.1//EN"
 "http://www.w3.org/Graphics/SVG/1.1/DTD/svg11.dtd">
<!-- Generated by graphviz version 8.0.5 (0)
 -->
<!-- Title: g Pages: 1 -->
<svg width="580pt" height="392pt"
 viewBox="0.00 0.00 579.88 392.15" xmlns="http://www.w3.org/2000/svg" xmlns:xlink="http://www.w3.org/1999/xlink">
<g id="graph0" class="graph" transform="scale(1 1) rotate(0) translate(4 388.15)">
<title>g</title>
<polygon fill="white" stroke="none" points="-4,4 -4,-388.15 575.88,-388.15 575.88,4 -4,4"/>
<!-- nvim -->
<g id="node1" class="node">
<title>nvim</title>
<polygon fill="none" stroke="black" points="92.38,-262.15 92.38,-383.65 487.88,-383.65 487.88,-262.15 92.38,-262.15"/>
<text text-anchor="middle" x="290.12" y="-366.35" font-family="monospace" font-size="14.00">Your neovim buffer</text>
<polyline fill="none" stroke="black" points="92.38,-356.15 487.88,-356.15"/>
<text text-anchor="start" x="100.38" y="-338.85" font-family="monospace" font-size="14.00">You are editing it</text>
<text text-anchor="start" x="100.38" y="-319.35" font-family="monospace" font-size="14.00"> and want browser shows the preview</text>
<polyline fill="none" stroke="black" points="92.38,-309.15 487.88,-309.15"/>
<text text-anchor="start" x="100.38" y="-291.85" font-family="monospace" font-size="14.00">And the preview cotent should be auto changed </text>
<text text-anchor="start" x="100.38" y="-272.35" font-family="monospace" font-size="14.00"> when you edit the buffer</text>
</g>
<!-- nvim&#45;&gt;nvim -->
<g id="edge5" class="edge">
<title>nvim&#45;&gt;nvim</title>
<path fill="none" stroke="chocolate" d="M487.79,-333.9C499.11,-331.25 505.88,-327.59 505.88,-322.9 505.88,-319.69 502.68,-316.95 497,-314.69"/>
<polygon fill="chocolate" stroke="chocolate" points="487.79,-311.9 498.67,-310.49 492.58,-313.35 497.37,-314.8 497.37,-314.8 497.37,-314.8 492.58,-313.35 496.06,-319.1 487.79,-311.9 487.79,-311.9"/>
<text text-anchor="middle" x="538.88" y="-320.53" font-family="monospace" font-size="10.00">change text</text>
</g>
<!-- dot.vim -->
<g id="node3" class="node">
<title>dot.vim</title>
<polygon fill="none" stroke="black" points="216.25,-211.4 0,-211.4 0,-175.4 222.25,-175.4 222.25,-205.4 216.25,-211.4"/>
<polyline fill="none" stroke="black" points="216.25,-211.4 216.25,-205.4"/>
<polyline fill="none" stroke="black" points="222.25,-205.4 216.25,-205.4"/>
<text text-anchor="middle" x="111.12" y="-189.85" font-family="monospace" font-size="14.00">~/.vim/preview/ft/dot.vim</text>
</g>
<!-- nvim&#45;&gt;dot.vim -->
<g id="edge6" class="edge">
<title>nvim&#45;&gt;dot.vim</title>
<path fill="none" stroke="chocolate" d="M206.39,-262.26C183.98,-246.3 161.09,-229.99 143.36,-217.37"/>
<polygon fill="chocolate" stroke="chocolate" points="135.6,-211.84 146.36,-213.97 139.67,-214.74 143.75,-217.64 143.75,-217.64 143.75,-217.64 139.67,-214.74 141.14,-221.31 135.6,-211.84 135.6,-211.84"/>
<text text-anchor="middle" x="213.12" y="-234.15" font-family="monospace" font-size="10.00">auto source</text>
</g>
<!-- preview.vim -->
<g id="node5" class="node">
<title>preview.vim</title>
<polygon fill="none" stroke="black" points="464.38,-211.4 239.88,-211.4 239.88,-175.4 470.38,-175.4 470.38,-205.4 464.38,-211.4"/>
<polyline fill="none" stroke="black" points="464.38,-211.4 464.38,-205.4"/>
<polyline fill="none" stroke="black" points="470.38,-205.4 464.38,-205.4"/>
<text text-anchor="middle" x="355.12" y="-189.85" font-family="monospace" font-size="14.00">~/.vim/preview/preview.vim</text>
</g>
<!-- nvim&#45;&gt;preview.vim -->
<g id="edge1" class="edge">
<title>nvim&#45;&gt;preview.vim</title>
<path fill="none" stroke="cornflowerblue" d="M281.71,-262.6C282.49,-250.97 285.17,-239.32 291.12,-229.4 293.75,-225.04 297.12,-221.18 300.95,-217.78"/>
<polygon fill="cornflowerblue" stroke="cornflowerblue" points="308.8,-211.78 303.59,-221.43 304.83,-214.82 300.85,-217.85 300.85,-217.85 300.85,-217.85 304.83,-214.82 298.12,-214.28 308.8,-211.78 308.8,-211.78"/>
<text text-anchor="middle" x="312.12" y="-234.15" font-family="monospace" font-size="10.00" fill="cornflowerblue">:source</text>
</g>
<!-- browser -->
<g id="node2" class="node">
<title>browser</title>
<polygon fill="none" stroke="black" points="288.26,-0.05 291.67,-0.16 295.03,-0.32 298.35,-0.53 301.61,-0.79 304.79,-1.11 307.88,-1.47 310.87,-1.89 313.76,-2.35 316.51,-2.86 319.14,-3.42 321.63,-4.01 323.96,-4.66 326.14,-5.34 328.16,-6.06 330.01,-6.81 331.68,-7.61 333.18,-8.43 334.49,-9.28 335.63,-10.17 336.58,-11.07 337.36,-12.01 337.95,-12.96 338.36,-13.93 338.6,-14.91 338.66,-15.91 338.56,-16.91 338.29,-17.93 337.86,-18.94 337.28,-19.96 336.56,-20.98 335.69,-21.99 334.69,-23 333.57,-23.99 332.33,-24.98 330.98,-25.95 329.53,-26.9 327.98,-27.83 326.35,-28.74 324.63,-29.62 322.84,-30.47 320.99,-31.3 319.07,-32.09 317.1,-32.85 315.09,-33.57 313.03,-34.25 310.93,-34.89 308.81,-35.49 306.65,-36.04 304.47,-36.55 302.27,-37.02 300.05,-37.43 297.82,-37.79 295.58,-38.11 293.33,-38.37 291.07,-38.59 288.8,-38.74 286.53,-38.85 284.26,-38.9 281.99,-38.9 279.72,-38.85 277.45,-38.74 275.18,-38.59 272.92,-38.37 270.67,-38.11 268.43,-37.79 266.2,-37.43 263.98,-37.02 261.78,-36.55 259.6,-36.04 257.44,-35.49 255.32,-34.89 253.22,-34.25 251.16,-33.57 249.15,-32.85 247.18,-32.09 245.26,-31.3 243.41,-30.47 241.62,-29.62 239.9,-28.74 238.27,-27.83 236.72,-26.9 235.27,-25.95 233.92,-24.98 232.68,-23.99 231.56,-23 230.56,-21.99 229.69,-20.98 228.97,-19.96 228.39,-18.94 227.96,-17.93 227.69,-16.91 227.59,-15.91 227.65,-14.91 227.89,-13.93 228.3,-12.96 228.89,-12.01 229.67,-11.07 230.62,-10.17 231.76,-9.28 233.07,-8.43 234.57,-7.61 236.24,-6.81 238.09,-6.06 240.11,-5.34 242.29,-4.66 244.62,-4.01 247.11,-3.42 249.74,-2.86 252.49,-2.35 255.38,-1.89 258.37,-1.47 261.46,-1.11 264.64,-0.79 267.9,-0.53 271.22,-0.32 274.58,-0.16 277.99,-0.05 281.41,0 284.84,0 288.26,-0.05"/>
<text text-anchor="middle" x="283.12" y="-15.9" font-family="monospace" font-size="14.00">browser</text>
</g>
<!-- websocket -->
<g id="node4" class="node">
<title>websocket</title>
<polygon fill="none" stroke="black" points="319.12,-125.15 109.12,-125.15 105.12,-121.15 105.12,-89.15 315.12,-89.15 319.12,-93.15 319.12,-125.15"/>
<polyline fill="none" stroke="black" points="315.12,-121.15 105.12,-121.15"/>
<polyline fill="none" stroke="black" points="315.12,-121.15 315.12,-89.15"/>
<polyline fill="none" stroke="black" points="315.12,-121.15 319.12,-125.15"/>
<text text-anchor="middle" x="212.12" y="-103.6" font-family="monospace" font-size="14.00">~/.vim/preview/websocket</text>
</g>
<!-- dot.vim&#45;&gt;websocket -->
<g id="edge7" class="edge">
<title>dot.vim&#45;&gt;websocket</title>
<path fill="none" stroke="chocolate" d="M113.07,-175.06C115.06,-164.68 119.06,-151.86 127.12,-143.15 131.64,-138.28 136.94,-134.06 142.65,-130.42"/>
<polygon fill="chocolate" stroke="chocolate" points="151.25,-125.48 144.81,-134.36 146.91,-127.97 142.58,-130.46 142.58,-130.46 142.58,-130.46 146.91,-127.97 140.34,-126.55 151.25,-125.48 151.25,-125.48"/>
<text text-anchor="middle" x="196.12" y="-147.9" font-family="monospace" font-size="10.00">send the newest preview</text>
</g>
<!-- websocket&#45;&gt;browser -->
<g id="edge8" class="edge">
<title>websocket&#45;&gt;browser</title>
<path fill="none" stroke="chocolate" d="M226.49,-88.81C236.82,-76.35 250.89,-59.36 262.43,-45.44"/>
<polygon fill="chocolate" stroke="chocolate" points="268.53,-38.06 265.62,-48.64 265.34,-41.91 262.16,-45.76 262.16,-45.76 262.16,-45.76 265.34,-41.91 258.69,-42.89 268.53,-38.06 268.53,-38.06"/>
<text text-anchor="middle" x="287.12" y="-61.65" font-family="monospace" font-size="10.00"> auto change</text>
</g>
<!-- preview.vim&#45;&gt;nvim -->
<g id="edge4" class="edge">
<title>preview.vim&#45;&gt;nvim</title>
<path fill="none" stroke="chocolate" d="M347.73,-211.89C343.62,-221.38 338.29,-233.26 333.12,-243.65 331.51,-246.9 329.84,-250.2 328.12,-253.53"/>
<polygon fill="chocolate" stroke="chocolate" points="323.51,-262.36 324.15,-251.41 325.82,-257.93 328.14,-253.5 328.14,-253.5 328.14,-253.5 325.82,-257.93 332.13,-255.58 323.51,-262.36 323.51,-262.36"/>
<text text-anchor="middle" x="369.12" y="-234.15" font-family="monospace" font-size="10.00">[1]Setting</text>
</g>
<!-- preview.vim&#45;&gt;browser -->
<g id="edge3" class="edge">
<title>preview.vim&#45;&gt;browser</title>
<path fill="none" stroke="black" d="M355.13,-175.27C354.4,-148.21 349.9,-94.78 327.12,-56.9 323.97,-51.66 319.78,-46.83 315.24,-42.51"/>
<polygon fill="black" stroke="black" points="307.91,-36.17 318.42,-39.31 311.69,-39.44 315.47,-42.71 315.47,-42.71 315.47,-42.71 311.69,-39.44 312.53,-46.11 307.91,-36.17 307.91,-36.17"/>
<text text-anchor="middle" x="373.12" y="-104.78" font-family="monospace" font-size="10.00">auto run</text>
</g>
<!-- preview.vim&#45;&gt;websocket -->
<g id="edge2" class="edge">
<title>preview.vim&#45;&gt;websocket</title>
<path fill="none" stroke="black" d="M323.79,-174.97C313.94,-169.42 303.04,-163.22 293.12,-157.4 278.43,-148.79 262.37,-139.09 248.46,-130.59"/>
<polygon fill="black" stroke="black" points="240.11,-125.47 250.98,-126.86 244.37,-128.08 248.63,-130.7 248.63,-130.7 248.63,-130.7 244.37,-128.08 246.28,-134.53 240.11,-125.47 240.11,-125.47"/>
<text text-anchor="middle" x="317.12" y="-147.9" font-family="monospace" font-size="10.00">auto run</text>
</g>
</g>
</svg>
