<?xml version="1.0" encoding="UTF-8" standalone="no"?>
<!DOCTYPE svg PUBLIC "-//W3C//DTD SVG 1.1//EN"
 "http://www.w3.org/Graphics/SVG/1.1/DTD/svg11.dtd">
<!-- Generated by graphviz version 8.0.5 (0)
 -->
<!-- Title: g Pages: 1 -->
<svg width="763pt" height="183pt"
 viewBox="0.00 0.00 763.25 183.28" xmlns="http://www.w3.org/2000/svg" xmlns:xlink="http://www.w3.org/1999/xlink">
<g id="graph0" class="graph" transform="scale(1 1) rotate(0) translate(4 179.28)">
<title>g</title>
<polygon fill="white" stroke="none" points="-4,4 -4,-179.28 759.25,-179.28 759.25,4 -4,4"/>
<!-- make -->
<g id="node1" class="node">
<title>make</title>
<polygon fill="none" stroke="none" points="222.25,-161.28 0,-161.28 0,-125.28 222.25,-125.28 222.25,-161.28"/>
<polyline fill="none" stroke="cornflowerblue" points="0,-125.28 222.25,-125.28"/>
<text text-anchor="middle" x="111.12" y="-139.73" font-family="monospace" font-size="14.00" fill="cornflowerblue">$make &#45;f makefile.default</text>
</g>
<!-- makefile -->
<g id="node2" class="node">
<title>makefile</title>
<polygon fill="none" stroke="black" points="179.12,-89.28 37.12,-89.28 37.12,-53.28 185.12,-53.28 185.12,-83.28 179.12,-89.28"/>
<polyline fill="none" stroke="black" points="179.12,-89.28 179.12,-83.28"/>
<polyline fill="none" stroke="black" points="185.12,-83.28 179.12,-83.28"/>
<text text-anchor="middle" x="111.12" y="-67.73" font-family="monospace" font-size="14.00">makefile.default</text>
</g>
<!-- make&#45;&gt;makefile -->
<g id="edge1" class="edge">
<title>make&#45;&gt;makefile</title>
<path fill="none" stroke="black" d="M111.12,-124.81C111.12,-113.06 111.12,-101.31 111.12,-89.56"/>
</g>
<!-- ft/* -->
<g id="node3" class="node">
<title>ft/*</title>
<polygon fill="none" stroke="black" points="420.75,-175.28 366.75,-175.28 366.75,-139.28 420.75,-139.28 420.75,-175.28"/>
<text text-anchor="middle" x="393.75" y="-153.73" font-family="monospace" font-size="14.00">ft/*</text>
</g>
<!-- makefile&#45;&gt;ft/* -->
<g id="edge8" class="edge">
<title>makefile&#45;&gt;ft/*</title>
<path fill="none" stroke="chocolate" stroke-dasharray="5,2" d="M168.8,-89.72C191.04,-96.88 216.81,-105.07 240.25,-112.28 284.44,-125.87 336.09,-140.94 366.52,-149.74"/>
<text text-anchor="middle" x="279.25" y="-139.03" font-family="monospace" font-size="10.00" fill="cornflowerblue">$install</text>
</g>
<!-- preview.vim -->
<g id="node4" class="node">
<title>preview.vim</title>
<polygon fill="none" stroke="black" points="447.12,-121.28 340.38,-121.28 340.38,-85.28 447.12,-85.28 447.12,-121.28"/>
<text text-anchor="middle" x="393.75" y="-99.73" font-family="monospace" font-size="14.00">preview.vim</text>
</g>
<!-- makefile&#45;&gt;preview.vim -->
<g id="edge6" class="edge">
<title>makefile&#45;&gt;preview.vim</title>
<path fill="none" stroke="chocolate" stroke-dasharray="5,2" d="M185.49,-79.64C234.05,-85.18 296.57,-92.31 340.19,-97.29"/>
<text text-anchor="middle" x="279.25" y="-99.03" font-family="monospace" font-size="10.00" fill="cornflowerblue">$install</text>
</g>
<!-- websocket.go -->
<g id="node5" class="node">
<title>websocket.go</title>
<polygon fill="none" stroke="black" points="451.25,-67.28 336.25,-67.28 336.25,-31.28 451.25,-31.28 451.25,-67.28"/>
<text text-anchor="middle" x="393.75" y="-45.73" font-family="monospace" font-size="14.00">websocket.go</text>
</g>
<!-- makefile&#45;&gt;websocket.go -->
<g id="edge2" class="edge">
<title>makefile&#45;&gt;websocket.go</title>
<path fill="none" stroke="#66cdaa" stroke-dasharray="5,2" d="M185.49,-65.53C232.42,-61.85 292.41,-57.15 335.76,-53.75"/>
<text text-anchor="middle" x="279.25" y="-65.03" font-family="monospace" font-size="10.00" fill="cornflowerblue">$go mod build</text>
</g>
<!-- websocket -->
<g id="node6" class="node">
<title>websocket</title>
<polygon fill="none" stroke="black" points="578.5,-67.28 492.25,-67.28 488.25,-63.28 488.25,-31.28 574.5,-31.28 578.5,-35.28 578.5,-67.28"/>
<polyline fill="none" stroke="black" points="574.5,-63.28 488.25,-63.28"/>
<polyline fill="none" stroke="black" points="574.5,-63.28 574.5,-31.28"/>
<polyline fill="none" stroke="black" points="574.5,-63.28 578.5,-67.28"/>
<text text-anchor="middle" x="533.38" y="-45.73" font-family="monospace" font-size="14.00">websocket</text>
</g>
<!-- makefile&#45;&gt;websocket -->
<g id="edge4" class="edge">
<title>makefile&#45;&gt;websocket</title>
<path fill="none" stroke="#66cdaa" stroke-dasharray="5,2" d="M152.34,-52.88C216.13,-26.14 344.23,17.62 451.25,-8.03 470,-12.52 489.3,-22.1 504.37,-30.9"/>
<text text-anchor="middle" x="393.75" y="-13.03" font-family="monospace" font-size="10.00" fill="cornflowerblue">$install</text>
</g>
<!-- root -->
<g id="node7" class="node">
<title>root</title>
<polygon fill="none" stroke="black" points="755.25,-121.28 615.5,-121.28 615.5,-85.28 755.25,-85.28 755.25,-121.28"/>
<text text-anchor="middle" x="685.38" y="-99.73" font-family="monospace" font-size="14.00">~/.vim/preview/</text>
</g>
<!-- ft/*&#45;&gt;root -->
<g id="edge9" class="edge">
<title>ft/*&#45;&gt;root</title>
<path fill="none" stroke="chocolate" d="M421.22,-152.34C462.58,-144.63 544.14,-129.43 605.55,-117.97"/>
<polygon fill="chocolate" stroke="chocolate" points="615.23,-116.17 606.22,-122.43 610.31,-117.09 605.4,-118 605.4,-118 605.4,-118 610.31,-117.09 604.57,-113.58 615.23,-116.17 615.23,-116.17"/>
</g>
<!-- preview.vim&#45;&gt;root -->
<g id="edge7" class="edge">
<title>preview.vim&#45;&gt;root</title>
<path fill="none" stroke="chocolate" d="M447.53,-103.28C491.59,-103.28 555.04,-103.28 605.18,-103.28"/>
<polygon fill="chocolate" stroke="chocolate" points="615.03,-103.28 605.03,-107.78 610.03,-103.28 605.03,-103.28 605.03,-103.28 605.03,-103.28 610.03,-103.28 605.03,-98.78 615.03,-103.28 615.03,-103.28"/>
</g>
<!-- websocket.go&#45;&gt;websocket -->
<g id="edge3" class="edge">
<title>websocket.go&#45;&gt;websocket</title>
<path fill="none" stroke="#66cdaa" d="M451.52,-49.28C460.34,-49.28 469.44,-49.28 478.2,-49.28"/>
<polygon fill="#66cdaa" stroke="#66cdaa" points="487.92,-49.28 477.92,-53.78 482.92,-49.28 477.92,-49.28 477.92,-49.28 477.92,-49.28 482.92,-49.28 477.92,-44.78 487.92,-49.28 487.92,-49.28"/>
</g>
<!-- websocket&#45;&gt;root -->
<g id="edge5" class="edge">
<title>websocket&#45;&gt;root</title>
<path fill="none" stroke="#66cdaa" d="M578.97,-65.33C593.06,-70.41 608.87,-76.1 623.88,-81.5"/>
<polygon fill="#66cdaa" stroke="#66cdaa" points="633.1,-84.82 622.16,-85.67 628.39,-83.12 623.69,-81.43 623.69,-81.43 623.69,-81.43 628.39,-83.12 625.21,-77.2 633.1,-84.82 633.1,-84.82"/>
</g>
</g>
</svg>
