<?xml version="1.0" encoding="UTF-8" standalone="no"?>
<!DOCTYPE svg PUBLIC "-//W3C//DTD SVG 1.1//EN"
 "http://www.w3.org/Graphics/SVG/1.1/DTD/svg11.dtd">
<!-- Generated by graphviz version 8.1.0 (0)
 -->
<!-- Title: nvim2browser Pages: 1 -->
<svg width="577pt" height="491pt"
 viewBox="0.00 0.00 576.75 490.94" xmlns="http://www.w3.org/2000/svg" xmlns:xlink="http://www.w3.org/1999/xlink">
<g id="graph0" class="graph" transform="scale(1 1) rotate(0) translate(4 486.94)">
<title>nvim2browser</title>
<polygon fill="white" stroke="none" points="-4,4 -4,-486.94 572.75,-486.94 572.75,4 -4,4"/>
<!-- nvim -->
<g id="node1" class="node">
<title>nvim</title>
<polygon fill="none" stroke="black" points="86.62,-364.69 86.62,-482.44 482.12,-482.44 482.12,-364.69 86.62,-364.69"/>
<text text-anchor="middle" x="284.38" y="-465.14" font-family="Source Code Pro,monospace" font-size="14.00">Your neovim buffer</text>
<polyline fill="none" stroke="black" points="86.62,-455.69 482.12,-455.69"/>
<text text-anchor="start" x="94.62" y="-438.39" font-family="Source Code Pro,monospace" font-size="14.00">You are editing it</text>
<text text-anchor="start" x="94.62" y="-419.64" font-family="Source Code Pro,monospace" font-size="14.00"> and want browser shows the preview</text>
<polyline fill="none" stroke="black" points="86.62,-410.19 482.12,-410.19"/>
<text text-anchor="start" x="94.62" y="-392.89" font-family="Source Code Pro,monospace" font-size="14.00">And the preview cotent should be auto changed </text>
<text text-anchor="start" x="94.62" y="-374.14" font-family="Source Code Pro,monospace" font-size="14.00"> when you edit the buffer</text>
</g>
<!-- w ! -->
<g id="node6" class="node">
<title>w !</title>
<path fill="none" stroke="gray" d="M311.38,-324.84C311.38,-326.69 299.27,-328.19 284.38,-328.19 269.48,-328.19 257.38,-326.69 257.38,-324.84 257.38,-324.84 257.38,-294.75 257.38,-294.75 257.38,-292.9 269.48,-291.41 284.38,-291.41 299.27,-291.41 311.38,-292.9 311.38,-294.75 311.38,-294.75 311.38,-324.84 311.38,-324.84"/>
<path fill="none" stroke="gray" d="M311.38,-324.84C311.38,-323 299.27,-321.5 284.38,-321.5 269.48,-321.5 257.38,-323 257.38,-324.84"/>
<text text-anchor="middle" x="284.38" y="-305.87" font-family="Source Code Pro,monospace" font-size="14.00" fill="gray">w !</text>
</g>
<!-- nvim&#45;&gt;w ! -->
<g id="edge1" class="edge">
<title>nvim&#45;&gt;w !</title>
<path fill="none" stroke="black" d="M284.38,-364.71C284.38,-355.53 284.38,-346.42 284.38,-338.37"/>
<polygon fill="black" stroke="black" points="284.38,-328.48 288.88,-338.48 284.38,-333.48 284.38,-338.48 284.38,-338.48 284.38,-338.48 284.38,-333.48 279.88,-338.48 284.38,-328.48 284.38,-328.48"/>
</g>
<!-- misc -->
<g id="node2" class="node">
<title>misc</title>
<polygon fill="none" stroke="black" points="568.75,-255.41 4,-255.41 0,-251.41 0,-219.41 564.75,-219.41 568.75,-223.41 568.75,-255.41"/>
<polyline fill="none" stroke="black" points="564.75,-251.41 0,-251.41"/>
<polyline fill="none" stroke="black" points="564.75,-251.41 564.75,-219.41"/>
<polyline fill="none" stroke="black" points="564.75,-251.41 568.75,-255.41"/>
<text text-anchor="middle" x="284.38" y="-233.48" font-family="Source Code Pro,monospace" font-size="14.00">programs that parse a specific type file to what browser can render</text>
</g>
<!-- socket -->
<g id="node4" class="node">
<title>socket</title>
<path fill="none" stroke="gray" d="M317.12,-180.06C317.12,-181.91 302.45,-183.41 284.38,-183.41 266.3,-183.41 251.62,-181.91 251.62,-180.06 251.62,-180.06 251.62,-149.97 251.62,-149.97 251.62,-148.12 266.3,-146.62 284.38,-146.62 302.45,-146.62 317.12,-148.12 317.12,-149.97 317.12,-149.97 317.12,-180.06 317.12,-180.06"/>
<path fill="none" stroke="gray" d="M317.12,-180.06C317.12,-178.22 302.45,-176.72 284.38,-176.72 266.3,-176.72 251.62,-178.22 251.62,-180.06"/>
<text text-anchor="middle" x="284.38" y="-161.09" font-family="Source Code Pro,monospace" font-size="14.00" fill="gray">socket</text>
</g>
<!-- misc&#45;&gt;socket -->
<g id="edge3" class="edge">
<title>misc&#45;&gt;socket</title>
<path fill="none" stroke="black" d="M284.38,-219.01C284.38,-211.36 284.38,-202.2 284.38,-193.67"/>
<polygon fill="black" stroke="black" points="284.38,-183.7 288.88,-193.7 284.38,-188.7 284.38,-193.7 284.38,-193.7 284.38,-193.7 284.38,-188.7 279.88,-193.7 284.38,-183.7 284.38,-183.7"/>
</g>
<!-- browser -->
<g id="node3" class="node">
<title>browser</title>
<polygon fill="none" stroke="black" points="289.51,-0.05 292.92,-0.16 296.28,-0.31 299.6,-0.52 302.86,-0.77 306.04,-1.08 309.13,-1.43 312.12,-1.84 315.01,-2.29 317.76,-2.78 320.39,-3.32 322.88,-3.9 325.21,-4.53 327.39,-5.19 329.41,-5.89 331.26,-6.63 332.93,-7.4 334.43,-8.2 335.74,-9.03 336.88,-9.89 337.83,-10.77 338.61,-11.68 339.2,-12.6 339.61,-13.55 339.85,-14.5 339.91,-15.47 339.81,-16.45 339.54,-17.44 339.11,-18.43 338.53,-19.42 337.81,-20.41 336.94,-21.39 335.94,-22.37 334.82,-23.34 333.58,-24.3 332.23,-25.24 330.78,-26.17 329.23,-27.07 327.6,-27.95 325.88,-28.81 324.09,-29.64 322.24,-30.44 320.32,-31.21 318.35,-31.95 316.34,-32.65 314.28,-33.31 312.18,-33.94 310.06,-34.52 307.9,-35.06 305.72,-35.56 303.52,-36.01 301.3,-36.41 299.07,-36.76 296.83,-37.07 294.58,-37.33 292.32,-37.53 290.05,-37.69 287.78,-37.79 285.51,-37.84 283.24,-37.84 280.97,-37.79 278.7,-37.69 276.43,-37.53 274.17,-37.33 271.92,-37.07 269.68,-36.76 267.45,-36.41 265.23,-36.01 263.03,-35.56 260.85,-35.06 258.69,-34.52 256.57,-33.94 254.47,-33.31 252.41,-32.65 250.4,-31.95 248.43,-31.21 246.51,-30.44 244.66,-29.64 242.87,-28.81 241.15,-27.95 239.52,-27.07 237.97,-26.17 236.52,-25.24 235.17,-24.3 233.93,-23.34 232.81,-22.37 231.81,-21.39 230.94,-20.41 230.22,-19.42 229.64,-18.43 229.21,-17.44 228.94,-16.45 228.84,-15.47 228.9,-14.5 229.14,-13.55 229.55,-12.6 230.14,-11.68 230.92,-10.77 231.87,-9.89 233.01,-9.03 234.32,-8.2 235.82,-7.4 237.49,-6.63 239.34,-5.89 241.36,-5.19 243.54,-4.53 245.87,-3.9 248.36,-3.32 250.99,-2.78 253.74,-2.29 256.63,-1.84 259.62,-1.43 262.71,-1.08 265.89,-0.77 269.15,-0.52 272.47,-0.31 275.83,-0.16 279.24,-0.05 282.66,0 286.09,0 289.51,-0.05"/>
<text text-anchor="middle" x="284.38" y="-15" font-family="Source Code Pro,monospace" font-size="14.00">browser</text>
</g>
<!-- websocket -->
<g id="node5" class="node">
<title>websocket</title>
<path fill="none" stroke="gray" d="M329.5,-107.28C329.5,-109.13 309.27,-110.62 284.38,-110.62 259.48,-110.62 239.25,-109.13 239.25,-107.28 239.25,-107.28 239.25,-77.19 239.25,-77.19 239.25,-75.34 259.48,-73.84 284.38,-73.84 309.27,-73.84 329.5,-75.34 329.5,-77.19 329.5,-77.19 329.5,-107.28 329.5,-107.28"/>
<path fill="none" stroke="gray" d="M329.5,-107.28C329.5,-105.44 309.27,-103.94 284.38,-103.94 259.48,-103.94 239.25,-105.44 239.25,-107.28"/>
<text text-anchor="middle" x="284.38" y="-88.31" font-family="Source Code Pro,monospace" font-size="14.00" fill="gray">websocket</text>
</g>
<!-- socket&#45;&gt;websocket -->
<g id="edge4" class="edge">
<title>socket&#45;&gt;websocket</title>
<path fill="none" stroke="gray" d="M284.38,-146.15C284.38,-138.47 284.38,-129.3 284.38,-120.78"/>
<polygon fill="gray" stroke="gray" points="284.38,-110.84 288.88,-120.84 284.38,-115.84 284.38,-120.84 284.38,-120.84 284.38,-120.84 284.38,-115.84 279.88,-120.84 284.38,-110.84 284.38,-110.84"/>
</g>
<!-- websocket&#45;&gt;browser -->
<g id="edge5" class="edge">
<title>websocket&#45;&gt;browser</title>
<path fill="none" stroke="black" d="M284.38,-73.61C284.38,-65.98 284.38,-56.87 284.38,-48.33"/>
<polygon fill="black" stroke="black" points="284.38,-38.34 288.88,-48.34 284.38,-43.34 284.38,-48.34 284.38,-48.34 284.38,-48.34 284.38,-43.34 279.88,-48.34 284.38,-38.34 284.38,-38.34"/>
</g>
<!-- w !&#45;&gt;misc -->
<g id="edge2" class="edge">
<title>w !&#45;&gt;misc</title>
<path fill="none" stroke="gray" d="M284.38,-291.03C284.38,-283.27 284.38,-274 284.38,-265.42"/>
<polygon fill="gray" stroke="gray" points="284.38,-255.43 288.88,-265.43 284.38,-260.43 284.38,-265.43 284.38,-265.43 284.38,-265.43 284.38,-260.43 279.88,-265.43 284.38,-255.43 284.38,-255.43"/>
</g>
</g>
</svg>
